<svg xmlns="http://www.w3.org/2000/svg" width="512" height="512" viewBox="0 0 512 512"><path d="M416 153.667h-64v14h64M363.3 362.9c-12.899-4.601-31.399-6.2-43.2-8.801-6.8-1.5-16.699-5.3-20-9.199-3.3-4-1.3-40.9-1.3-40.9s6.101-9.6 9.4-18 6.899-31.4 6.899-31.4 6.801 0 9.2-11.9c2.601-13 6.601-18.4 6.101-28.1-.5-9-5.2-9.5-5.7-9.5 0 0 4.899-13.6 5.6-42.4C331.1 128.6 305 95 256 95s-75 33.5-74.3 67.6c.6 28.7 5.6 42.4 5.6 42.4-.5 0-5.2.5-5.7 9.5-.5 9.7 3.6 14.9 6.1 27.9 2.4 11.9 9.2 12 9.2 12s3.6 23.1 6.9 31.5c3.3 8.5 9.4 18 9.4 18s2 36.899-1.3 40.899-13.2 7.7-20 9.2c-11.9 2.6-30.3 4.3-43.2 8.9C135.8 367.5 96 383 96 415h320c0-32-39.8-47.5-52.7-52.1z"/></svg>