<svg xmlns="http://www.w3.org/2000/svg" width="800" height="800" viewBox="0 0 800 800"><path d="M481.25 433.125c39.844-51.562 125.781-174.219 140.938-211.562 11.25-27.5 16.562-51.25 16.25-72.188-.312-27.969-9.375-45.781-28.594-63.438-8.125-7.5-21.094-10.781-31.25-10.781l-178.75 240-15.625 20.938-4.531 6.094-.156.156-22.656 30.781c-.156.156-.312.469-.469.625-.781 1.25-11.719 17.031-23.75 35.469-4.688 7.188-9.531 14.844-14.062 22.031-5.469 8.75-10.312 17.188-13.75 23.75-5.625 11.094-11.406 22.5-16.719 33.594-5.781 11.719-11.25 22.812-16.25 32.344-15.938-11.406-34.375-17.344-53.594-17.344-27.344 0-52.656 12.031-71.562 33.75-17.969 20.625-27.969 47.969-27.969 76.875s10 56.25 27.969 77.031c18.906 21.719 44.375 33.75 71.562 33.75 22.5 0 43.75-8.125 61.25-23.438 16.406-14.219 28.125-33.281 34.062-55.312 1.562-4.844 18.125-54.219 40.781-89.531 14.375-22.5 34.688-36.562 46.25-43.438l21.094-15.156c0 .156 19.843-13.594 59.531-65zM218.594 657.969c-20.781 0-37.5-19.688-37.5-43.75s16.719-43.75 37.5-43.75 37.5 19.688 37.5 43.75-16.875 43.75-37.5 43.75zm181.562-207.657c-13.75 0-25-11.25-25-25s11.25-25 25-25 25 11.25 25 25-11.25 25-25 25z"/><path d="M299.219 406.875c1.094 1.562 2.5 2.969 3.906 4.219 2.656-4.375 5.625-8.906 8.438-13.438l72.656-102.812L220.156 75c-13.906 0-22.5 1.406-28.906 6.094-18.594 13.906-29.844 40-30.156 68.125-.312 21.094 5.156 44.688 16.25 72.188 13.437 32.812 66.562 109.687 121.875 185.468zM581.25 503.594c-19.219 0-37.656 5.938-53.594 17.344-5-9.531-10.469-20.625-16.25-32.344-5.312-10.781-10.781-21.875-16.25-32.5l-17.031 21.719-56.875 51.719c8.125 7.188 16.719 16.25 23.906 27.344 22.656 35.312 39.062 84.688 40.781 89.531 5.938 22.031 17.656 41.094 34.062 55.312 17.656 15.312 38.906 23.438 61.25 23.438 55.156 0 100-49.688 100-110.781s-44.843-110.782-99.999-110.782zm.156 154.375c-20.781 0-37.5-19.688-37.5-43.75s16.719-43.75 37.5-43.75 37.5 19.688 37.5 43.75-16.718 43.75-37.5 43.75z"/><path fill="none" stroke="#000" stroke-width="40" stroke-miterlimit="10" d="M554.25 392.594h127"/></svg>