<svg xmlns="http://www.w3.org/2000/svg" width="800" height="800" viewBox="0 0 800 800"><path d="M317.344 247.344C325.469 229.844 330 210.625 330 190c0-77.344-62.656-140-140-140S50 112.656 50 190s62.656 140 140 140c20.625 0 39.844-4.531 57.344-12.656L330 400l-82.656 82.656C229.844 474.531 210.625 470 190 470c-77.344 0-140 62.656-140 140s62.656 140 140 140 140-62.656 140-140c0-20.625-4.531-39.844-12.656-57.344L400 470l245 245h105v-35L317.344 247.344zM190 260c-38.438 0-70-31.094-70-70s31.562-70 70-70 70 31.094 70 70-31.562 70-70 70zm0 420c-38.438 0-70-31.094-70-70s31.562-70 70-70 70 31.094 70 70-31.562 70-70 70zm210-262.5c-9.844 0-17.5-7.656-17.5-17.5s7.656-17.5 17.5-17.5 17.5 7.656 17.5 17.5-7.656 17.5-17.5 17.5zM645 85L435 295l70 70 245-245V85H645z"/><path fill="none" stroke="#000" stroke-width="40" stroke-miterlimit="10" d="M607 400h127M670.5 336.5v127"/></svg>