<?xml version="1.0" encoding="utf-8"?>
<!-- Generator: Adobe Illustrator 16.0.0, SVG Export Plug-In . SVG Version: 6.00 Build 0)  -->
<!DOCTYPE svg PUBLIC "-//W3C//DTD SVG 1.1//EN" "http://www.w3.org/Graphics/SVG/1.1/DTD/svg11.dtd">
<svg version="1.1" id="Layer_1" xmlns="http://www.w3.org/2000/svg" xmlns:xlink="http://www.w3.org/1999/xlink" x="0px" y="0px"
	 width="800px" height="800px" viewBox="0 0 800 800" enable-background="new 0 0 800 800" xml:space="preserve">
<g>
	<path d="M481.25,433.125c39.844-51.562,125.781-174.219,140.938-211.562c11.25-27.5,16.562-51.25,16.25-72.188
		c-0.312-27.969-9.375-45.781-28.594-63.438c-8.125-7.5-21.094-10.781-31.25-10.781l-178.75,240l-15.625,20.938l-4.531,6.094
		l-0.156,0.156l-22.656,30.781c-0.156,0.156-0.312,0.469-0.469,0.625c-0.781,1.25-11.719,17.031-23.75,35.469
		c-4.688,7.188-9.531,14.844-14.062,22.031c-5.469,8.75-10.312,17.188-13.75,23.75c-5.625,11.094-11.406,22.5-16.719,33.594
		c-5.781,11.719-11.25,22.812-16.25,32.344c-15.938-11.406-34.375-17.344-53.594-17.344c-27.344,0-52.656,12.031-71.562,33.75
		c-17.969,20.625-27.969,47.969-27.969,76.875s10,56.25,27.969,77.031c18.906,21.719,44.375,33.75,71.562,33.75
		c22.5,0,43.75-8.125,61.25-23.438c16.406-14.219,28.125-33.281,34.062-55.312c1.562-4.844,18.125-54.219,40.781-89.531
		c14.375-22.5,34.688-36.562,46.25-43.438l21.094-15.156C421.719,498.281,441.562,484.531,481.25,433.125z M218.594,657.969
		c-20.781,0-37.5-19.688-37.5-43.75s16.719-43.75,37.5-43.75s37.5,19.688,37.5,43.75S239.219,657.969,218.594,657.969z
		 M400.156,450.312c-13.75,0-25-11.25-25-25s11.25-25,25-25s25,11.25,25,25S413.906,450.312,400.156,450.312z"/>
	<path d="M299.219,406.875c1.094,1.562,2.5,2.969,3.906,4.219c2.656-4.375,5.625-8.906,8.438-13.438l72.656-102.812L220.156,75
		c-13.906,0-22.5,1.406-28.906,6.094c-18.594,13.906-29.844,40-30.156,68.125c-0.312,21.094,5.156,44.688,16.25,72.188
		C190.781,254.219,243.906,331.094,299.219,406.875z"/>
	<path d="M581.25,503.594c-19.219,0-37.656,5.938-53.594,17.344c-5-9.531-10.469-20.625-16.25-32.344
		c-5.312-10.781-10.781-21.875-16.25-32.5l-17.031,21.719l-56.875,51.719c8.125,7.188,16.719,16.25,23.906,27.344
		c22.656,35.312,39.062,84.688,40.781,89.531c5.938,22.031,17.656,41.094,34.062,55.312c17.656,15.312,38.906,23.438,61.25,23.438
		c55.156,0,100-49.688,100-110.781S636.406,503.594,581.25,503.594z M581.406,657.969c-20.781,0-37.5-19.688-37.5-43.75
		s16.719-43.75,37.5-43.75s37.5,19.688,37.5,43.75S602.188,657.969,581.406,657.969z"/>
</g>
<line fill="none" stroke="#000000" stroke-width="40" stroke-miterlimit="10" x1="554.25" y1="392.594" x2="681.25" y2="392.594"/>
</svg>
