<?xml version="1.0" encoding="utf-8"?>
<!-- Generator: Adobe Illustrator 16.0.0, SVG Export Plug-In . SVG Version: 6.00 Build 0)  -->
<!DOCTYPE svg PUBLIC "-//W3C//DTD SVG 1.1//EN" "http://www.w3.org/Graphics/SVG/1.1/DTD/svg11.dtd">
<svg version="1.1" id="Layer_1" xmlns="http://www.w3.org/2000/svg" xmlns:xlink="http://www.w3.org/1999/xlink" x="0px" y="0px"
	 width="512px" height="512px" viewBox="0 0 512 512" enable-background="new 0 0 512 512" xml:space="preserve">
<g>
	<polyline points="416,153.667 352,153.667 352,167.667 416,167.667 	"/>
	<g>
		<path d="M363.3,362.9c-12.899-4.601-31.399-6.2-43.2-8.801c-6.8-1.5-16.699-5.3-20-9.199c-3.3-4-1.3-40.9-1.3-40.9
			s6.101-9.6,9.4-18s6.899-31.4,6.899-31.4s6.801,0,9.2-11.9c2.601-13,6.601-18.4,6.101-28.1c-0.5-9-5.2-9.5-5.7-9.5l0,0
			c0,0,4.899-13.6,5.6-42.4C331.1,128.6,305,95,256,95s-75,33.5-74.3,67.6c0.6,28.7,5.6,42.4,5.6,42.4l0,0c-0.5,0-5.2,0.5-5.7,9.5
			c-0.5,9.7,3.6,14.9,6.1,27.9c2.4,11.9,9.2,12,9.2,12s3.6,23.1,6.9,31.5c3.3,8.5,9.4,18,9.4,18s2,36.899-1.3,40.899
			c-3.3,4-13.2,7.7-20,9.2c-11.9,2.6-30.3,4.3-43.2,8.9C135.8,367.5,96,383,96,415h160h160C416,383,376.2,367.5,363.3,362.9z"/>
	</g>
</g>
</svg>
