<?xml version="1.0" encoding="utf-8"?>
<!-- Generator: Adobe Illustrator 16.0.0, SVG Export Plug-In . SVG Version: 6.00 Build 0)  -->
<!DOCTYPE svg PUBLIC "-//W3C//DTD SVG 1.1//EN" "http://www.w3.org/Graphics/SVG/1.1/DTD/svg11.dtd">
<svg version="1.1" id="Layer_1" xmlns="http://www.w3.org/2000/svg" xmlns:xlink="http://www.w3.org/1999/xlink" x="0px" y="0px"
	 width="800px" height="800px" viewBox="0 0 800 800" enable-background="new 0 0 800 800" xml:space="preserve">
<path d="M317.344,247.344C325.469,229.844,330,210.625,330,190c0-77.344-62.656-140-140-140S50,112.656,50,190s62.656,140,140,140
	c20.625,0,39.844-4.531,57.344-12.656L330,400l-82.656,82.656C229.844,474.531,210.625,470,190,470c-77.344,0-140,62.656-140,140
	s62.656,140,140,140s140-62.656,140-140c0-20.625-4.531-39.844-12.656-57.344L400,470l245,245h105v-35L317.344,247.344z M190,260
	c-38.438,0-70-31.094-70-70s31.562-70,70-70s70,31.094,70,70S228.438,260,190,260z M190,680c-38.438,0-70-31.094-70-70
	s31.562-70,70-70s70,31.094,70,70S228.438,680,190,680z M400,417.5c-9.844,0-17.5-7.656-17.5-17.5s7.656-17.5,17.5-17.5
	s17.5,7.656,17.5,17.5S409.844,417.5,400,417.5z M645,85L435,295l70,70l245-245V85H645z"/>
<line fill="none" stroke="#000000" stroke-width="40" stroke-miterlimit="10" x1="607" y1="400" x2="734" y2="400"/>
<line fill="none" stroke="#000000" stroke-width="40" stroke-miterlimit="10" x1="670.5" y1="336.5" x2="670.5" y2="463.5"/>
</svg>
